# xmcd
#
# Track frame offsets:
#	150
#	3500
#	21942
#	27730
#	40498
#	58689
#	75320
#	80202
#	89846
#	111450
#	124389
#	137638
#	159542
#	163233
#	181824
#
# Disc length: 2812 seconds
#
# Revision: 0
# Processed by: cddbd v1.5.1PL2 Copyright (c) Steve Scherf et al.
# Submitted via: audiograbber 1.83.01
#
DISCID=d40afa0f
DTITLE=Various Artist - Kill Bill Vol.2
DYEAR=2004
DGENRE=Soundtrack
TTITLE0=Uma Thurman - A Few Words From The Bride
TTITLE1=Shivaree - Goodnight Moon
TTITLE2=Ennio Morricone - Il Tramonto
TTITLE3=Charlie Feathers - Can't Hardly Stand It
TTITLE4=Lole Y Manuel - Tu Mirá (Edit)
TTITLE5=Luis Bacalov - Summertime Killer
TTITLE6=Alan Reeves, Phil Steele and Philip Brigham - The Chase
TTITLE7=David Carradine and Uma Thurman - The Legend Of Pai Mei
TTITLE8=Ennio Morricone - L'Arena
TTITLE9=Johnny Cash - A Satisfied Mind
TTITLE10=Ennio Morricone - A Silhouette Of Doom
TTITLE11=Malcolm McLaren - About Her
TTITLE12=David Carradine and Uma Thurman - Truly And Utterly Bill
TTITLE13=Chingon - Malaguena Salerosa
TTITLE14=Meiko Kaji - Urami Bushi
EXTD=
EXTT0=
EXTT1=
EXTT2=
EXTT3=
EXTT4=
EXTT5=
EXTT6=
EXTT7=
EXTT8=
EXTT9=
EXTT10=
EXTT11=
EXTT12=
EXTT13=
EXTT14=
PLAYORDER=
